# xmcd
#
# Track frame offsets: 
#        150
#        12094
#        22069
#        34029
#        45487
#        66829
#        78539
#        90088
#        101887
#        114720
#        128225
#        140205
#        150356
#        174392
#        185313
#        196372
#        207524
#        217904
#        227562
#        240412
#        250651
#        261251
#        270279
#        282954
#        294624
#        309771
#        324720
#        335159
#
# Disc length: 4618 seconds
#
# Revision: 1
# Processed by: cddbd v1.5.2PL0 Copyright (c) Steve Scherf et al.
# Submitted via: ExactAudioCopyFreeDBPlugin 1.0
#
DISCID=8b12081c
DTITLE=Various Artist - It's Jamaica Jump Blues Time!:  Jamaican Soun
DTITLE=d System Classics, 1941-1962
DYEAR=2015
DGENRE=Rhythm and Blues
TTITLE0=Fats Domino - I Know
TTITLE1=The Capris - Let's Linger Awhile
TTITLE2=The Cameos - Craving
TTITLE3=Donna Hightower - Since You
TTITLE4=Louis Prima - Just A Gigolo - I Ain't Got Nobody
TTITLE5=Gene and Eunice - Bom Bom Lulu
TTITLE6=Big Mike Gordon - (Ho Ho Ho) You Don't Want Me No More
TTITLE7=Big Walter - Shirley Jean
TTITLE8=Rosco Gordon - Keep on Doggin'
TTITLE9=Paul "Hucklebuck" Williams - Pass the Buck
TTITLE10=Lowell Fulson - Don't Drive Me Baby
TTITLE11=Professor Longhair - Baby, Let Me Hold Your Hand
TTITLE12=Jimmy Beasley - Johnny's House Party (Parts 1 and 2)
TTITLE13=Lloyd Price - Baby, Please Come Home
TTITLE14=Paul Gayten - Tickle Toe
TTITLE15=Huey and Jerry - I Think You Jiving Me
TTITLE16=Jesse Belvin - Let Me Dream
TTITLE17=John Fred - My Love for You
TTITLE18=Warren Storm - Prisoner's Song
TTITLE19=Bobby Day - Ain't Gonna Cry No More
TTITLE20=Eugene Church - I Ain't Goin for That
TTITLE21=The Frantics - Straight Flush
TTITLE22=The Spacemen - The Clouds
TTITLE23=Bill Black's Combo - White Silver Sands
TTITLE24=Ernie K Doe - 'Taint it the Truth
TTITLE25=Charles Brown - Angel Baby
TTITLE26=Roy Milton - Baby You Don't Know
TTITLE27=Wilbert Harrison - Broke
EXTD=
EXTT0=
EXTT1=
EXTT2=
EXTT3=
EXTT4=
EXTT5=
EXTT6=
EXTT7=
EXTT8=
EXTT9=
EXTT10=
EXTT11=
EXTT12=
EXTT13=
EXTT14=
EXTT15=
EXTT16=
EXTT17=
EXTT18=
EXTT19=
EXTT20=
EXTT21=
EXTT22=
EXTT23=
EXTT24=
EXTT25=
EXTT26=
EXTT27=
PLAYORDER=
